<mxfile host="app.diagrams.net" modified="2023-09-12T02:11:07.893Z" agent="Mozilla/5.0 (Windows NT 10.0; Win64; x64) AppleWebKit/537.36 (KHTML, like Gecko) Chrome/116.0.0.0 Safari/537.36 OPR/103.0.0.0 (Edition developer)" etag="Iy2fJ6PcEjoqpN67tmCv" version="21.6.6" type="device">
  <diagram name="Página-1" id="zVqvCo3mK2y5pj-Cdwmg">
    <mxGraphModel dx="2207" dy="741" grid="1" gridSize="10" guides="1" tooltips="1" connect="1" arrows="1" fold="1" page="1" pageScale="1" pageWidth="827" pageHeight="1169" math="0" shadow="0">
      <root>
        <mxCell id="0" />
        <mxCell id="1" parent="0" />
        <mxCell id="tlYUhlG3JdVOQkXDViFM-13" value="" style="group" parent="1" vertex="1" connectable="0">
          <mxGeometry x="30" y="140" width="640" height="640" as="geometry" />
        </mxCell>
        <mxCell id="tlYUhlG3JdVOQkXDViFM-1" value="" style="whiteSpace=wrap;html=1;aspect=fixed;" parent="tlYUhlG3JdVOQkXDViFM-13" vertex="1">
          <mxGeometry width="640" height="640" as="geometry" />
        </mxCell>
        <mxCell id="tlYUhlG3JdVOQkXDViFM-5" value="&lt;font style=&quot;font-size: 20px;&quot;&gt;Quantidade de pedidos por dia&lt;/font&gt;" style="rounded=0;whiteSpace=wrap;html=1;" parent="tlYUhlG3JdVOQkXDViFM-13" vertex="1">
          <mxGeometry width="640" height="221.25" as="geometry" />
        </mxCell>
        <mxCell id="tlYUhlG3JdVOQkXDViFM-6" value="&lt;font style=&quot;font-size: 20px;&quot;&gt;Distribuição de pedidos&lt;br&gt;por tipo de tráfego&lt;/font&gt;" style="rounded=0;whiteSpace=wrap;html=1;" parent="tlYUhlG3JdVOQkXDViFM-13" vertex="1">
          <mxGeometry y="221.25" width="320" height="180.27777777777777" as="geometry" />
        </mxCell>
        <mxCell id="tlYUhlG3JdVOQkXDViFM-14" value="Comparação de volume&lt;br style=&quot;font-size: 20px;&quot;&gt;de pedidos por cidade e&lt;br style=&quot;font-size: 20px;&quot;&gt;tipo de tráfego" style="rounded=0;whiteSpace=wrap;html=1;fontSize=20;" parent="tlYUhlG3JdVOQkXDViFM-13" vertex="1">
          <mxGeometry x="320" y="221.25" width="320" height="180.27777777777777" as="geometry" />
        </mxCell>
        <mxCell id="tlYUhlG3JdVOQkXDViFM-15" value="Localização central de cada cidade por tipo de tráfego" style="rounded=0;whiteSpace=wrap;html=1;fontSize=20;" parent="tlYUhlG3JdVOQkXDViFM-13" vertex="1">
          <mxGeometry y="401.53" width="640" height="238.47" as="geometry" />
        </mxCell>
        <mxCell id="tlYUhlG3JdVOQkXDViFM-16" value="Visão de Planejamento" style="text;html=1;align=center;verticalAlign=middle;resizable=0;points=[];autosize=1;strokeColor=none;fillColor=none;fontSize=25;" parent="1" vertex="1">
          <mxGeometry x="210" y="80" width="280" height="40" as="geometry" />
        </mxCell>
        <mxCell id="tlYUhlG3JdVOQkXDViFM-17" value="" style="group" parent="1" vertex="1" connectable="0">
          <mxGeometry x="690" y="140" width="640" height="640" as="geometry" />
        </mxCell>
        <mxCell id="tlYUhlG3JdVOQkXDViFM-18" value="" style="whiteSpace=wrap;html=1;aspect=fixed;" parent="tlYUhlG3JdVOQkXDViFM-17" vertex="1">
          <mxGeometry width="640" height="640" as="geometry" />
        </mxCell>
        <mxCell id="tlYUhlG3JdVOQkXDViFM-19" value="Quantidade de pedidos por semana" style="rounded=0;whiteSpace=wrap;html=1;fontSize=20;" parent="tlYUhlG3JdVOQkXDViFM-17" vertex="1">
          <mxGeometry width="640" height="221.25" as="geometry" />
        </mxCell>
        <mxCell id="tlYUhlG3JdVOQkXDViFM-20" value="" style="rounded=0;whiteSpace=wrap;html=1;" parent="tlYUhlG3JdVOQkXDViFM-17" vertex="1">
          <mxGeometry y="221.25" width="320" height="180.27777777777777" as="geometry" />
        </mxCell>
        <mxCell id="tlYUhlG3JdVOQkXDViFM-21" value="" style="rounded=0;whiteSpace=wrap;html=1;" parent="tlYUhlG3JdVOQkXDViFM-17" vertex="1">
          <mxGeometry x="320" y="221.25" width="320" height="180.27777777777777" as="geometry" />
        </mxCell>
        <mxCell id="tlYUhlG3JdVOQkXDViFM-22" value="&lt;font style=&quot;font-size: 20px;&quot;&gt;A quantidade de pedidos por entregador por semana&lt;/font&gt;" style="rounded=0;whiteSpace=wrap;html=1;" parent="tlYUhlG3JdVOQkXDViFM-17" vertex="1">
          <mxGeometry y="401.53" width="640" height="238.47" as="geometry" />
        </mxCell>
        <mxCell id="tlYUhlG3JdVOQkXDViFM-23" value="Visão de Estratégica" style="text;html=1;align=center;verticalAlign=middle;resizable=0;points=[];autosize=1;strokeColor=none;fillColor=none;fontSize=25;" parent="1" vertex="1">
          <mxGeometry x="885" y="80" width="250" height="40" as="geometry" />
        </mxCell>
        <mxCell id="tlYUhlG3JdVOQkXDViFM-24" value="Curry Company" style="rounded=0;whiteSpace=wrap;html=1;rotation=0;fontSize=20;labelPosition=center;verticalLabelPosition=middle;align=center;verticalAlign=middle;" parent="1" vertex="1">
          <mxGeometry x="-320" y="140" width="280" height="640" as="geometry" />
        </mxCell>
        <mxCell id="PpwAPnAPcdb63Eu-9Lqx-1" value="Visão de Estratégica" style="text;html=1;align=center;verticalAlign=middle;resizable=0;points=[];autosize=1;strokeColor=none;fillColor=none;fontSize=25;" vertex="1" parent="1">
          <mxGeometry x="225" y="880" width="250" height="40" as="geometry" />
        </mxCell>
        <mxCell id="PpwAPnAPcdb63Eu-9Lqx-8" value="" style="rounded=0;whiteSpace=wrap;html=1;" vertex="1" parent="1">
          <mxGeometry x="30" y="960" width="640" height="640" as="geometry" />
        </mxCell>
      </root>
    </mxGraphModel>
  </diagram>
</mxfile>
